<svg width="32" height="32" viewBox="0 0 32 32" fill="none" xmlns="http://www.w3.org/2000/svg">
<path fill-rule="evenodd" clip-rule="evenodd" d="M31.0645 25.8893L16.5937 31.8773C16.4116 31.9558 16.2109 31.9999 16 31.9999C15.7891 31.9999 15.5883 31.9558 15.4062 31.8773L0.93531 25.8893C0.38679 25.6664 -3.00407e-05 25.1281 -3.00407e-05 24.5V1.4997C-3.00407e-05 0.67111 0.671515 5.49555e-05 1.49996 5.49555e-05C1.70321 5.49555e-05 1.89673 0.0405149 2.07344 0.11391H2.07354L2.07596 0.114995C2.08041 0.116185 2.08489 0.1186 2.08933 0.12042L16 5.87648L29.9106 0.12042C29.915 0.1186 29.9195 0.116185 29.924 0.114995L29.9265 0.11391C30.1032 0.0405149 30.2967 5.49555e-05 30.5 5.49555e-05C31.3284 5.49555e-05 31.9999 0.67111 31.9999 1.4997V24.5C31.9999 25.1281 31.6132 25.6664 31.0645 25.8893ZM14.5 8.50257L2.99993 3.74383V23.4967L14.5 28.2557V8.50257ZM29 3.74383L17.4999 8.50257V28.2557L29 23.4967V3.74383ZM19.8793 10.634L25.3793 8.1342C25.5685 8.04782 25.7785 7.99962 25.9999 7.99962C26.8284 7.99962 27.5 8.6713 27.5 9.49972C27.5 10.1066 27.1393 10.6293 26.6207 10.8653L21.1206 13.3651C20.9315 13.4516 20.7215 13.4998 20.5 13.4998C19.6716 13.4998 18.9999 12.8282 18.9999 11.9996C18.9999 11.3928 19.3606 10.8701 19.8793 10.634ZM19.8793 16.1344L25.3793 13.634C25.5685 13.5482 25.7785 13.4998 25.9999 13.4998C26.8284 13.4998 27.5 14.171 27.5 14.9995C27.5 15.607 27.1393 16.1291 26.6207 16.365L21.1206 18.8655V18.8648C20.9315 18.9513 20.7215 18.9996 20.5 18.9996C19.6716 18.9996 18.9999 18.3279 18.9999 17.4999C18.9999 16.8926 19.3606 16.3705 19.8793 16.1344ZM19.8793 21.6341L25.3793 19.1343C25.5685 19.0479 25.7785 18.9996 25.9999 18.9996C26.8284 18.9996 27.5 19.6714 27.5 20.4998C27.5 21.1066 27.1393 21.6293 26.6207 21.8654L21.1206 24.3652C20.9315 24.4516 20.7215 24.5 20.5 24.5C19.6716 24.5 18.9999 23.8281 18.9999 22.9997C18.9999 22.393 19.3606 21.8702 19.8793 21.6341ZM6.00002 7.99962C6.22147 7.99962 6.43147 8.04782 6.62061 8.1342L12.1206 10.634C12.6393 10.8701 13 11.3928 13 11.9996C13 12.8282 12.3284 13.4998 11.4999 13.4998C11.2785 13.4998 11.0685 13.4516 10.8793 13.3651L5.37929 10.8653C4.86063 10.6293 4.49992 10.1066 4.49992 9.49972C4.49992 8.6713 5.17157 7.99962 6.00002 7.99962ZM6.00002 13.4998C6.22147 13.4998 6.43147 13.5482 6.62061 13.634L12.1206 16.1344C12.6393 16.3705 13 16.8926 13 17.4999C13 18.3279 12.3284 18.9996 11.4999 18.9996C11.2785 18.9996 11.0685 18.9513 10.8793 18.8648V18.8655L5.37929 16.365C4.86063 16.1291 4.49992 15.607 4.49992 14.9995C4.49992 14.171 5.17157 13.4998 6.00002 13.4998ZM6.00002 18.9996C6.22147 18.9996 6.43147 19.0479 6.62061 19.1343L12.1206 21.6341C12.6393 21.8702 13 22.393 13 22.9997C13 23.8281 12.3284 24.5 11.4999 24.5C11.2785 24.5 11.0685 24.4516 10.8793 24.3652L5.37929 21.8654C4.86063 21.6293 4.49992 21.1066 4.49992 20.4998C4.49992 19.6714 5.17157 18.9996 6.00002 18.9996Z" fill="#95E1D3"/>
</svg>
