<svg width="32" height="31" viewBox="0 0 32 31" fill="none" xmlns="http://www.w3.org/2000/svg">
<path fill-rule="evenodd" clip-rule="evenodd" d="M30.7396 9.50281C29.1563 5.80661 26.1931 2.84311 22.4974 1.26007C23.4968 0.473318 24.7547 -3.39746e-05 26.1256 -3.39746e-05C29.3699 -3.39746e-05 32 2.62967 32 5.874C32 7.24495 31.5266 8.50265 30.7396 9.50281ZM30.5 15.9997C30.5 19.852 28.9878 23.3429 26.5375 25.9398L28.5656 27.9677C28.8339 28.2365 29 28.6072 29 29.0167C29 29.8357 28.3359 30.4997 27.5169 30.4997C27.1073 30.4997 26.7365 30.334 26.4681 30.0652L24.2896 27.8866C21.9391 29.5293 19.0849 30.4997 16 30.4997C12.9212 30.4997 10.0718 29.5335 7.72396 27.8967L5.56067 30.0603C5.28912 30.3316 4.9142 30.4997 4.49994 30.4997C3.6716 30.4997 2.99996 29.8279 2.99996 28.9994C2.99996 28.5858 3.16786 28.2102 3.43928 27.939L5.45116 25.9275C3.00775 23.3316 1.49999 19.8453 1.49999 15.9997C1.49999 7.99184 7.99188 1.49962 16 1.49962C24.0081 1.49962 30.5 7.99184 30.5 15.9997ZM16 4.49955C9.64863 4.49955 4.49994 9.64811 4.49994 15.9997C4.49994 22.3512 9.64863 27.4998 16 27.4998C22.3512 27.4998 27.4999 22.3512 27.4999 15.9997C27.4999 9.64811 22.3512 4.49955 16 4.49955ZM22 17.4998H16C15.1716 17.4998 14.5 16.8282 14.5 15.9997V7.99953C14.5 7.17156 15.1716 6.49988 16 6.49988C16.8284 6.49988 17.5 7.17156 17.5 7.99953V14.4995H22C22.8285 14.4995 23.5 15.1711 23.5 15.9997C23.5 16.8282 22.8285 17.4998 22 17.4998ZM1.28725 9.70537C0.483386 8.68494 7.98702e-06 7.39992 7.98702e-06 5.99979C7.98702e-06 2.6857 2.68628 -3.39746e-05 5.99992 -3.39746e-05C7.40011 -3.39746e-05 8.68504 0.483416 9.70585 1.2868C5.9309 2.90397 2.90429 5.93063 1.28725 9.70537Z" fill="#95E1D3"/>
</svg>
