<svg width="13" height="26" viewBox="0 0 13 26" fill="none" xmlns="http://www.w3.org/2000/svg">
<path fill-rule="evenodd" clip-rule="evenodd" d="M12.0893 0.198838C12.0893 1.6754 12.0893 4.31991 12.0893 4.31991C12.0893 4.31991 9.05169 4.01724 8.291 5.1813C7.87512 5.81733 8.12197 7.68052 8.08512 9.01858C9.41115 9.01858 10.7884 9.01858 12.1144 9.01858C11.7736 10.5832 11.5297 11.643 11.2793 12.9972C10.1318 12.9972 8.06258 12.9972 8.06258 12.9972V25.8009C8.06258 25.8009 4.26577 25.8009 2.48084 25.8009C2.48198 21.854 2.48003 17.2488 2.48084 13.0474C1.61372 13.0474 0.97262 13.0474 0.105725 13.0474C0.105725 11.5714 0.105725 10.4956 0.105725 9.01858C0.946985 9.01858 1.61291 9.01858 2.45463 9.01858C2.57502 6.07302 2.62046 3.15466 4.08357 1.66876C5.7282 -0.00187099 7.29662 0.198838 12.0893 0.198838Z" fill="white"/>
</svg>
