<svg width="32" height="31" viewBox="0 0 32 31" fill="none" xmlns="http://www.w3.org/2000/svg">
<path fill-rule="evenodd" clip-rule="evenodd" d="M31.9999 16.4997C31.9999 17.3283 31.3284 17.9994 30.5 17.9994C30.1048 17.9994 29.7481 17.8438 29.4802 17.5942L29.4765 17.5976L16.0382 4.15919L16.0383 4.15856L15.9999 4.12233V4.12173L2.55381 17.5685L2.55315 17.5679C2.28225 17.8349 1.91045 17.9994 1.50007 17.9994C0.671515 17.9994 -3.00407e-05 17.3283 -3.00407e-05 16.4997C-3.00407e-05 16.0747 0.177 15.6915 0.460815 15.4186L14.9188 0.9602C15.1918 0.676532 15.575 0.49952 15.9999 0.49952C16.0002 0.49952 16.0003 0.49952 16.0005 0.49952C16.0271 0.49952 16.0534 0.500114 16.0796 0.501929C16.0837 0.501929 16.088 0.502556 16.0921 0.502556C16.1147 0.504206 16.1372 0.506021 16.1596 0.50843C16.161 0.50843 16.1624 0.50843 16.1639 0.509024C16.5311 0.548921 16.8581 0.721247 17.097 0.976964L17.0978 0.976337L22.9999 6.87832V5.49978C22.9999 4.67118 23.6715 3.99953 24.4999 3.99953C25.3284 3.99953 25.9999 4.67118 25.9999 5.49978V9.87825L31.5978 15.4763L31.5944 15.4799C31.8441 15.7476 31.9999 16.1046 31.9999 16.4997ZM29 18.9996V23.4998V25.4995V29.4996C29 30.3281 28.3284 30.9999 27.5 30.9999H24.4999V18.9996H18.5V30.9999H4.50002C3.67157 30.9999 3.00003 30.3281 3.00003 29.4996V25.4995V23.4998V18.9996L15.9999 5.99989L29 18.9996ZM13.5 18.9996H7.49994V25H13.5V18.9996Z" fill="#95E1D3"/>
</svg>
