<svg width="32" height="28" viewBox="0 0 32 28" fill="none" xmlns="http://www.w3.org/2000/svg">
<path fill-rule="evenodd" clip-rule="evenodd" d="M30 22.9996H22.5001H20.5V25.4994L22.5001 27.4998V27.9999H9.50002V27.4998L11.5 25.4994V22.9996H9.50002H2.00002C1.17158 22.9996 0.500046 22.3279 0.500046 21.4993V1.49963C0.500046 0.67118 1.17158 -3.99947e-05 2.00002 -3.99947e-05H30C30.8285 -3.99947e-05 31.5 0.67118 31.5 1.49963V21.4993C31.5 22.3279 30.8285 22.9996 30 22.9996ZM29.5 1.9997H2.49999V18.9995H29.5V1.9997ZM12.9999 8.99972C13.4142 8.99972 13.7892 9.16781 14.0606 9.43895L14.9999 10.3784L17.9393 7.43918C18.2108 7.16747 18.5857 6.99998 19 6.99998C19.8284 6.99998 20.5 7.67102 20.5 8.49962C20.5 8.91392 20.3321 9.2888 20.0606 9.56051L16.0607 13.5606C15.7892 13.8319 15.4142 14 14.9999 14C14.5858 14 14.2107 13.8319 13.9393 13.5606L11.9393 11.5603C11.6679 11.2891 11.5 10.9135 11.5 10.5C11.5 9.67139 12.1716 8.99972 12.9999 8.99972Z" fill="#95E1D3"/>
</svg>
